<svg width="160" height="36" viewBox="0 0 160 36" fill="none" xmlns="http://www.w3.org/2000/svg">
<g clip-path="url(#clip0_1603_5241)">
<circle cx="16" cy="18" r="16" fill="#4640DE"/>
<mask id="path-2-inside-1_1603_5241" fill="white">
<path d="M16 29C18.6652 29 21.3304 26.8953 23.0607 25.179C23.4599 24.7831 22.9792 24.2122 22.4822 24.4749C20.6013 25.469 18.0181 26.6 16 26.6C13.9819 26.6 11.3987 25.469 9.5178 24.4749C9.02076 24.2122 8.54012 24.7831 8.93926 25.179C10.6696 26.8953 13.3348 29 16 29Z"/>
</mask>
<path d="M23.0607 25.179L25.1734 27.3089V27.3089L23.0607 25.179ZM8.93926 25.179L6.82658 27.3089H6.82658L8.93926 25.179ZM9.5178 24.4749L10.9197 21.8226L10.9197 21.8226L9.5178 24.4749ZM22.4822 24.4749L21.0803 21.8226L21.0803 21.8226L22.4822 24.4749ZM20.948 23.0491C20.1783 23.8126 19.2652 24.5953 18.3201 25.1712C17.3491 25.7627 16.5672 26 16 26V32C18.098 32 19.9813 31.1849 21.4419 30.2951C22.9282 29.3895 24.2129 28.2616 25.1734 27.3089L20.948 23.0491ZM16 26C15.4328 26 14.6509 25.7627 13.6799 25.1712C12.7348 24.5953 11.8217 23.8126 11.052 23.0491L6.82658 27.3089C7.78708 28.2616 9.07177 29.3895 10.5581 30.2951C12.0187 31.1849 13.902 32 16 32V26ZM8.11593 27.1272C9.1314 27.6639 10.3827 28.2629 11.6934 28.7336C12.967 29.1911 14.4921 29.6 16 29.6V23.6C15.4899 23.6 14.7143 23.4434 13.7216 23.0868C12.7658 22.7436 11.7851 22.28 10.9197 21.8226L8.11593 27.1272ZM16 29.6C17.5079 29.6 19.033 29.1911 20.3066 28.7336C21.6173 28.2629 22.8686 27.6639 23.8841 27.1272L21.0803 21.8226C20.2149 22.28 19.2342 22.7436 18.2785 23.0868C17.2857 23.4434 16.5101 23.6 16 23.6V29.6ZM25.1734 27.3089C25.7674 26.7197 26.1776 25.8995 26.2071 24.9593C26.2356 24.0551 25.905 23.2526 25.4152 22.663C24.4114 21.4547 22.6321 21.0024 21.0803 21.8226L23.8841 27.1272C22.8293 27.6847 21.5389 27.3865 20.7999 26.4969C20.4425 26.0667 20.1883 25.4648 20.2101 24.7708C20.2331 24.0407 20.5536 23.4403 20.948 23.0491L25.1734 27.3089ZM11.052 23.0491C11.4464 23.4403 11.7669 24.0407 11.7899 24.7708C11.8117 25.4648 11.5575 26.0667 11.2001 26.4969C10.4611 27.3865 9.17068 27.6847 8.11593 27.1272L10.9197 21.8226C9.36787 21.0024 7.5886 21.4547 6.58483 22.663C6.09504 23.2526 5.76443 24.0551 5.79286 24.9593C5.82241 25.8995 6.23259 26.7197 6.82658 27.3089L11.052 23.0491Z" fill="white" mask="url(#path-2-inside-1_1603_5241)"/>
<path d="M21.7119 11.3158C21.3919 10.9936 21.3919 10.4773 21.7119 10.1552L23.4303 8.02632L23.4303 7.98937C23.8656 7.55866 24.5715 7.55866 25.0068 7.98937C25.4421 8.42007 25.4421 9.11837 25.0068 9.54907L22.982 11.3158L22.9064 11.3828C22.7483 11.5077 22.5512 11.5766 22.3469 11.5766C22.1086 11.5766 21.8801 11.4828 21.7119 11.3158ZM8.66663 17.185C8.66663 15.2892 9.42782 13.4711 10.7828 12.1306C12.1377 10.79 13.9754 10.0369 15.8916 10.0369C19.8818 10.0369 23.1165 13.2372 23.1165 17.185C23.1165 21.1327 19.8818 24.333 15.8916 24.333C11.9013 24.333 8.66663 21.1327 8.66663 17.185Z" fill="white"/>
</g>
<path d="M54.136 20.472C54.136 21.48 53.968 22.408 53.632 23.256C53.296 24.088 52.824 24.8 52.216 25.392C51.624 25.984 50.896 26.44 50.032 26.76C49.184 27.08 48.24 27.24 47.2 27.24C45.536 27.24 44.112 26.816 42.928 25.968C41.744 25.12 40.904 23.904 40.408 22.32L43.624 21.096C43.976 22.104 44.448 22.856 45.04 23.352C45.632 23.848 46.36 24.096 47.224 24.096C48.248 24.096 49.072 23.752 49.696 23.064C50.336 22.376 50.656 21.48 50.656 20.376V10.2H54.136V20.472ZM55.8784 20.76C55.8784 19.848 56.0464 19 56.3824 18.216C56.7344 17.416 57.2064 16.728 57.7984 16.152C58.4064 15.56 59.1184 15.096 59.9344 14.76C60.7504 14.424 61.6224 14.256 62.5504 14.256C63.4784 14.256 64.3504 14.424 65.1664 14.76C65.9824 15.096 66.6864 15.56 67.2784 16.152C67.8864 16.728 68.3584 17.416 68.6944 18.216C69.0464 19 69.2224 19.848 69.2224 20.76C69.2224 21.672 69.0464 22.528 68.6944 23.328C68.3584 24.112 67.8864 24.792 67.2784 25.368C66.6864 25.944 65.9824 26.4 65.1664 26.736C64.3504 27.072 63.4784 27.24 62.5504 27.24C61.6224 27.24 60.7504 27.072 59.9344 26.736C59.1184 26.4 58.4064 25.944 57.7984 25.368C57.2064 24.792 56.7344 24.112 56.3824 23.328C56.0464 22.528 55.8784 21.672 55.8784 20.76ZM62.5504 24.384C63.5104 24.384 64.3264 24.032 64.9984 23.328C65.6704 22.624 66.0064 21.768 66.0064 20.76C66.0064 19.736 65.6704 18.872 64.9984 18.168C64.3264 17.464 63.5104 17.112 62.5504 17.112C61.5904 17.112 60.7744 17.464 60.1024 18.168C59.4304 18.872 59.0944 19.736 59.0944 20.76C59.0944 21.768 59.4304 22.624 60.1024 23.328C60.7744 24.032 61.5904 24.384 62.5504 24.384ZM84.1555 20.76C84.1555 21.656 83.9875 22.496 83.6515 23.28C83.3155 24.064 82.8595 24.744 82.2835 25.32C81.7075 25.896 81.0195 26.352 80.2195 26.688C79.4355 27.008 78.5955 27.168 77.6995 27.168C77.0755 27.168 76.4675 27.08 75.8755 26.904C75.2835 26.728 74.7395 26.48 74.2435 26.16V27H71.0035V10.2L74.2915 9.48V15.48C74.7875 15.112 75.3315 14.832 75.9235 14.64C76.5315 14.432 77.1555 14.328 77.7955 14.328C78.6755 14.328 79.4995 14.496 80.2675 14.832C81.0515 15.168 81.7315 15.624 82.3075 16.2C82.8835 16.776 83.3315 17.456 83.6515 18.24C83.9875 19.024 84.1555 19.864 84.1555 20.76ZM77.2675 17.136C76.6755 17.136 76.1235 17.24 75.6115 17.448C75.0995 17.64 74.6595 17.928 74.2915 18.312V23.232C74.6435 23.584 75.0755 23.864 75.5875 24.072C76.1155 24.28 76.6755 24.384 77.2675 24.384C78.2915 24.384 79.1555 24.04 79.8595 23.352C80.5635 22.648 80.9155 21.784 80.9155 20.76C80.9155 19.736 80.5555 18.88 79.8355 18.192C79.1315 17.488 78.2755 17.136 77.2675 17.136ZM86.1436 27V10.2H89.6236V16.944H97.3516V10.2H100.832V27H97.3516V20.136H89.6236V27H86.1436ZM106.622 14.496V21.768C106.622 22.568 106.854 23.208 107.318 23.688C107.798 24.168 108.43 24.408 109.214 24.408C109.774 24.408 110.27 24.304 110.702 24.096C111.15 23.872 111.518 23.56 111.806 23.16V14.496H115.094V27H111.806V25.992C111.326 26.392 110.79 26.704 110.198 26.928C109.606 27.136 108.966 27.24 108.278 27.24C106.838 27.24 105.654 26.776 104.726 25.848C103.798 24.904 103.334 23.704 103.334 22.248V14.496H106.622ZM117.416 27V14.496H120.704V15.48C121.184 15.08 121.712 14.776 122.288 14.568C122.88 14.36 123.52 14.256 124.208 14.256C125.648 14.256 126.832 14.72 127.76 15.648C128.688 16.576 129.152 17.768 129.152 19.224V27H125.864V19.704C125.864 18.92 125.624 18.288 125.144 17.808C124.68 17.328 124.056 17.088 123.272 17.088C122.728 17.088 122.232 17.2 121.784 17.424C121.352 17.632 120.992 17.936 120.704 18.336V27H117.416ZM132.638 23.472V17.256H130.07V14.496H132.638V11.304L135.926 10.56V14.496H139.478V17.256H135.926V22.8C135.926 23.392 136.054 23.808 136.31 24.048C136.566 24.288 137.014 24.408 137.654 24.408C137.958 24.408 138.246 24.392 138.518 24.36C138.79 24.312 139.086 24.232 139.406 24.12V26.808C139.054 26.92 138.63 27.008 138.134 27.072C137.638 27.152 137.214 27.192 136.862 27.192C135.47 27.192 134.414 26.88 133.694 26.256C132.99 25.616 132.638 24.688 132.638 23.472ZM144.154 9.48V27H140.866V10.2L144.154 9.48ZM149.869 27.576L150.061 27.12L145.189 14.496H148.813L151.909 23.016L155.461 14.496H159.013L153.253 27.984C152.613 29.488 151.869 30.56 151.021 31.2C150.173 31.84 149.069 32.16 147.709 32.16C147.421 32.16 147.141 32.144 146.869 32.112C146.613 32.096 146.405 32.064 146.245 32.016V29.184C146.405 29.216 146.573 29.24 146.749 29.256C146.925 29.272 147.141 29.28 147.397 29.28C147.989 29.28 148.485 29.136 148.885 28.848C149.301 28.56 149.629 28.136 149.869 27.576Z" fill="white"/>
<defs>
<clipPath id="clip0_1603_5241">
<rect width="32" height="32" fill="white" transform="translate(0 2)"/>
</clipPath>
</defs>
</svg>
